# xmcd
# Track frame offsets:
# 150
# 13473
# 32141
# 43821
# 68039
# 86748
# 99655
# 118206
# 127851
# 144396
#
# Disc length: 2050 seconds
# Revision: 0
# Processed by: cddbd v1.4PL0 Copyright (c) Steve Scherf et al.
# Submitted via: VisiTrax 2.9.5.180 - For more info visit www.synapsa.com
#
DISCID=8d08000a
DTITLE=Tony Martin - Celebrate
DYEAR=1900
DGENRE=
TTITLE0=Celebrate
TTITLE1=The scars
TTITLE2=Believe in the power
TTITLE3=How much he loved you
TTITLE4=I want to be with you
TTITLE5=God gives excitement
TTITLE6=Holy spirit
TTITLE7=I will be ready
TTITLE8=Silent star
TTITLE9=Walking in the light
EXTD=
EXTT0=
EXTT1=
EXTT2=
EXTT3=
EXTT4=
EXTT5=
EXTT6=
EXTT7=
EXTT8=
EXTT9=
PLAYORDER=
